:SAMPLES-PER-SECOND 24
:FULLY-SPECIFIED
:DEGREES
132
root  -4.9957 39.4138 28.6317 7.29269 -28.8125 -1.98114
RightUpLeg  -7.55004 2.8903 -0.800624
RightLeg  24.89 -4.85804 -2.63569
RightFoot  -16.7833 0.00305263 2.45195
RightToes  -2.08645e-008 3.77894e-005 6.81332e-007
Spine  0.80957 2.70295 5.85307
Spine1  3.12226 3.75523 -5.90944
HEad  -39.7132 16.2264 -8.27114
LeftShoulder1  7.79139 -13.6371 -39.2862
LeftArm  6.93115 20.687 -25.2419
LeftForeArm  151.863 -72.3003 -147.057
LeftHand  -0.641904 -0.329226 13.1082
RightShoulder  3.93003 6.72052 32.5518
RightArm  20.8081 -12.1822 35.4149
RightForeArm  143.991 77.7037 130.088
RightHand  -0.461369 9.6674 -3.94311
LeftUpLeg  -28.456 17.7255 -9.05916
LeftLeg  12.4466 20.8844 -0.795602
LeftFoot  8.60899 -0.584726 3.39822
LeftToes  1.24767e-006 1.47042e-008 1.32732e-009
133
root  -4.65991 40.5921 28.1188 8.81024 -28.7038 -2.11383
RightUpLeg  -5.92389 0.197327 -1.30357
RightLeg  15.0023 -0.846671 -0.91801
RightFoot  -9.03411 -0.174256 5.14901
RightToes  -2.08645e-008 3.77894e-005 6.81332e-007
Spine  -0.856227 1.49821 3.70601
Spine1  2.36102 1.39398 -0.992159
HEad  -36.0776 17.6795 -7.57554
LeftShoulder1  7.5308 -13.4323 -38.3439
LeftArm  9.52676 24.4291 -28.7067
LeftForeArm  159.437 -69.6419 -152.481
LeftHand  -0.554835 -1.75862 9.22185
RightShoulder  3.85685 6.61753 32.2216
RightArm  21.5674 -20.4555 32.8459
RightForeArm  154.108 73.573 144.79
RightHand  -0.472392 9.27312 -4.12294
LeftUpLeg  -23.834 7.69696 -0.90871
LeftLeg  4.38355 16.9063 -7.26444
LeftFoot  13.7293 3.10682 -14.1372
LeftToes  1.24767e-006 1.47042e-008 1.32732e-009
134
root  -4.32756 41.2462 27.5151 9.62292 -30.5416 -1.36499
RightUpLeg  -7.19357 -1.88545 -2.68278
RightLeg  11.8661 1.26162 -0.486938
RightFoot  -4.38921 -0.502567 7.7687
RightToes  -2.08645e-008 3.77894e-005 6.81332e-007
Spine  -2.07715 1.13856 1.82104
Spine1  1.90484 0.599734 1.37233
HEad  -33.8545 18.6104 -6.43786
LeftShoulder1  7.42296 -13.3964 -37.8208
LeftArm  11.9114 25.6635 -29.3726
LeftForeArm  168.349 -66.4103 -157.423
LeftHand  -0.334693 -2.93615 4.89941
RightShoulder  4.04949 6.79219 33.4444
RightArm  21.4496 -26.8514 28.5097
RightForeArm  159.355 69.9108 152.079
RightHand  -0.330603 9.6903 -2.93986
LeftUpLeg  -23.8891 9.40488 -0.163861
LeftLeg  8.36155 -0.378636 -5.27624
LeftFoot  11.3755 4.79283 -23.9015
LeftToes  1.24767e-006 1.47042e-008 1.32732e-009
135
root  -3.86498 41.3437 26.7655 8.20233 -34.6406 -1.01055
RightUpLeg  -10.205 1.33057 -3.82536
RightLeg  20.1665 -4.15802 -1.9846
RightFoot  -3.00713 -0.538604 7.08157
RightToes  -2.08645e-008 3.77894e-005 6.81332e-007
Spine  -1.14229 1.18696 1.92598
Spine1  3.33341 0.679301 1.65072
HEad  -34.2736 20.5193 -6.35676
LeftShoulder1  7.23678 -13.2639 -37.0832
LeftArm  12.4813 23.8711 -29.2324
LeftForeArm  171.338 -62.9881 -160.802
LeftHand  -0.156372 -3.31787 2.33002
RightShoulder  4.19599 6.97536 34.1505
RightArm  20.9684 -28.0974 26.1411
RightForeArm  161.46 68.253 154.551
RightHand  -0.238462 9.63007 -2.23698
LeftUpLeg  -22.5092 14.3272 0.472974
LeftLeg  17.863 -6.60986 -1.73021
LeftFoot  8.83543 3.06918 -17.4651
LeftToes  1.24767e-006 1.47042e-008 1.32732e-009
136
root  -3.39781 40.8009 25.9193 5.06009 -38.095 -0.114008
RightUpLeg  -10.816 2.37494 -5.02811
RightLeg  28.861 -6.60988 -4.1144
RightFoot  -5.35225 -0.39953 7.03529
RightToes  -2.08645e-008 3.77894e-005 6.81332e-007
Spine  1.7462 0.633023 -0.343784
Spine1  4.24331 -0.185092 3.82487
HEad  -34.8716 23.1669 -7.01559
LeftShoulder1  7.03878 -13.0251 -36.5282
LeftArm  11.4566 21.2682 -29.4296
LeftForeArm  170.342 -60.2555 -162.686
LeftHand  -0.105229 -3.36658 1.63977
RightShoulder  4.05966 6.87502 33.2274
RightArm  21.0315 -26.5599 25.9024
RightForeArm  161.575 67.9733 154.895
RightHand  -0.205125 9.05113 -2.04613
LeftUpLeg  -18.5768 9.91055 5.30839
LeftLeg  27.9383 4.36315 2.95657
LeftFoot  7.87374 1.15321 -7.0225
LeftToes  1.24767e-006 1.47042e-008 1.32732e-009
137
root  -2.99581 39.7214 25.1352 2.69812 -39.5114 0.897029
RightUpLeg  -10.0453 -0.0742239 -6.39554
RightLeg  31.8346 -3.5817 -2.63492
RightFoot  -12.9779 0.0320243 7.77842
RightToes  -2.08645e-008 3.77894e-005 6.81332e-007
Spine  4.12899 -0.238207 -3.12863
Spine1  3.71824 -1.5997 6.4547
HEad  -34.3478 24.98 -7.1571
LeftShoulder1  7.04823 -12.9425 -36.7944
LeftArm  9.61769 17.2211 -28.8118
LeftForeArm  169.514 -59.8122 -162.914
LeftHand  -0.180846 -3.02058 2.72819
RightShoulder  4.0731 6.82227 33.5592
RightArm  20.1896 -25.0181 25.2896
RightForeArm  160.723 68.4164 154.269
RightHand  -0.349415 9.17344 -3.16899
LeftUpLeg  -15.4964 4.54378 8.60056
LeftLeg  37.5088 8.75206 7.52993
LeftFoot  4.06489 0.823205 -6.06535
LeftToes  1.24767e-006 1.47042e-008 1.32732e-009
138
root  -2.5306 38.4949 24.4794 2.5755 -41.5063 0.0215788
RightUpLeg  -11.2558 -1.51168 -5.85524
RightLeg  33.6806 -0.971047 -0.947091
RightFoot  -20.6639 0.327292 5.72914
RightToes  -2.08645e-008 3.77894e-005 6.81332e-007
Spine  3.13214 -0.524397 -2.21659
Spine1  6.55892 -2.00761 6.47166
HEad  -34.7906 25.852 -7.4745
LeftShoulder1  7.44514 -13.278 -38.2475
LeftArm  6.50613 9.90951 -27.772
LeftForeArm  169.397 -62.5993 -160.912
LeftHand  -0.34282 -2.31765 5.36914
RightShoulder  4.28503 6.96338 35.0366
RightArm  16.7335 -21.5758 25.3911
RightForeArm  156.632 70.9398 150.141
RightHand  -0.955295 8.43112 -8.37164
LeftUpLeg  -11.8985 1.61294 12.3817
LeftLeg  41.3086 5.83889 5.86197
LeftFoot  -4.29748 0.989448 -15.5803
LeftToes  1.24767e-006 1.47042e-008 1.32732e-009
139
root  -1.97672 37.7174 23.9351 3.95425 -45.0345 -1.95336
RightUpLeg  -14.5288 1.60406 -3.98052
RightLeg  36.6484 -2.52706 -2.2796
RightFoot  -23.6008 0.247492 3.75877
RightToes  -2.08645e-008 3.77894e-005 6.81332e-007
Spine  1.42024 -0.172031 -1.34536
Spine1  9.92396 -2.03903 6.79308
HEad  -36.6007 27.5189 -8.10353
LeftShoulder1  8.14601 -13.884 -40.6002
LeftArm  2.76468 4.7571 -28.1973
LeftForeArm  169.741 -66.2919 -157.71
LeftHand  -0.477111 -1.96133 7.72368
RightShoulder  4.39732 7.03834 35.797
RightArm  13.4796 -17.3511 26.355
RightForeArm  151.154 74.4191 142.391
RightHand  -0.569455 8.88489 -5.0096
LeftUpLeg  -7.59793 2.29596 15.2425
LeftLeg  37.7219 2.33088 2.30449
LeftFoot  -14.3272 -0.515579 -24.2355
LeftToes  1.24767e-006 1.47042e-008 1.32732e-009
140
root  -1.38301 37.9767 23.4913 5.04828 -46.194 -1.97961
RightUpLeg  -16.4336 4.05323 -4.02733
RightLeg  35.0679 -4.16242 -3.3573
RightFoot  -21.1101 0.199448 3.99116
RightToes  -2.08645e-008 3.77894e-005 6.81332e-007
Spine  0.811269 -0.656565 -5.31295
Spine1  9.92374 -3.64244 10.7205
HEad  -38.5307 29.9033 -8.37939
LeftShoulder1  8.7888 -14.4121 -42.6806
LeftArm  0.680569 5.1821 -30.5671
LeftForeArm  169.665 -67.9683 -155.908
LeftHand  -0.533893 -2.07947 8.4934
RightShoulder  4.49406 7.11755 36.3838
RightArm  11.7454 -17.1206 27.1318
RightForeArm  148.36 75.7725 138.214
RightHand  -0.527553 8.87807 -4.67002
LeftUpLeg  -5.99329 2.90249 14.3026
LeftLeg  30.7709 4.2508 2.99996
LeftFoot  -16.457 -0.952937 -23.2831
LeftToes  1.24767e-006 1.47042e-008 1.32732e-009
